name ./resultDataOpenSim/trcMotMarkerGrf/sub09/grf-01-02.mot
datacolumns 19
datarows 20
range 0.49200000 0.56800000
endheader

                time	     ground_force_vx	     ground_force_vy	     ground_force_vz	     ground_force_px	     ground_force_py	     ground_force_pz	   l_ground_force_vx	   l_ground_force_vy	   l_ground_force_vz	   l_ground_force_px	   l_ground_force_py	   l_ground_force_pz	     ground_torque_x	     ground_torque_y	     ground_torque_z	   l_ground_torque_x	   l_ground_torque_y	   l_ground_torque_z	
          0.49200000	         24.69355218	        409.05526903	        -34.31890330	         -0.71745758	          0.00000000	          0.15736854	          0.00000000	          0.00000000	          0.00000000	          0.00000000	          0.00000000	          0.00000000	          0.00000000	          3.66202975	          0.00000000	          0.00000000	          0.00000000	          0.00000000	
          0.49600000	         28.22601260	        413.04639886	        -34.47574030	         -0.71739895	          0.00000000	          0.15709389	          0.00000000	          0.00000000	          0.00000000	          0.00000000	          0.00000000	          0.00000000	          0.00000000	          4.15585257	          0.00000000	          0.00000000	          0.00000000	          0.00000000	
          0.50000000	         31.32360157	        417.76660115	        -34.18486158	         -0.71725384	          0.00000000	          0.15665420	          0.00000000	          0.00000000	          0.00000000	          0.00000000	          0.00000000	          0.00000000	          0.00000000	          4.74072970	          0.00000000	          0.00000000	          0.00000000	          0.00000000	
          0.50400000	         34.01816306	        423.44444764	        -33.54028747	         -0.71701276	          0.00000000	          0.15605390	          0.00000000	          0.00000000	          0.00000000	          0.00000000	          0.00000000	          0.00000000	          0.00000000	          5.39843476	          0.00000000	          0.00000000	          0.00000000	          0.00000000	
          0.50800000	         36.46686929	        430.29524500	        -32.62658594	         -0.71669225	          0.00000000	          0.15532763	          0.00000000	          0.00000000	          0.00000000	          0.00000000	          0.00000000	          0.00000000	          0.00000000	          6.10227718	          0.00000000	          0.00000000	          0.00000000	          0.00000000	
          0.51200000	         38.89854713	        438.48184582	        -31.50767084	         -0.71630255	          0.00000000	          0.15452327	          0.00000000	          0.00000000	          0.00000000	          0.00000000	          0.00000000	          0.00000000	          0.00000000	          6.82164819	          0.00000000	          0.00000000	          0.00000000	          0.00000000	
          0.51600000	         41.54521780	        448.08832383	        -30.23145271	         -0.71584660	          0.00000000	          0.15369212	          0.00000000	          0.00000000	          0.00000000	          0.00000000	          0.00000000	          0.00000000	          0.00000000	          7.52706852	          0.00000000	          0.00000000	          0.00000000	          0.00000000	
          0.52000000	         44.57761630	        459.11234341	        -28.84653977	         -0.71532464	          0.00000000	          0.15287820	          0.00000000	          0.00000000	          0.00000000	          0.00000000	          0.00000000	          0.00000000	          0.00000000	          8.19401698	          0.00000000	          0.00000000	          0.00000000	          0.00000000	
          0.52400000	         48.05888167	        471.46507754	        -27.42250135	         -0.71474462	          0.00000000	          0.15211020	          0.00000000	          0.00000000	          0.00000000	          0.00000000	          0.00000000	          0.00000000	          0.00000000	          8.80426901	          0.00000000	          0.00000000	          0.00000000	          0.00000000	
          0.52800000	         51.92501943	        484.97433953	        -26.06253353	         -0.71408776	          0.00000000	          0.15141540	          0.00000000	          0.00000000	          0.00000000	          0.00000000	          0.00000000	          0.00000000	          0.00000000	          9.34452783	          0.00000000	          0.00000000	          0.00000000	          0.00000000	
          0.53200000	         55.99886824	        499.40648909	        -24.90472662	         -0.71330466	          0.00000000	          0.15081903	          0.00000000	          0.00000000	          0.00000000	          0.00000000	          0.00000000	          0.00000000	          0.00000000	          9.80330503	          0.00000000	          0.00000000	          0.00000000	          0.00000000	
          0.53600000	         60.04010727	        514.50366058	        -24.11591332	         -0.71233938	          0.00000000	          0.15034142	          0.00000000	          0.00000000	          0.00000000	          0.00000000	          0.00000000	          0.00000000	          0.00000000	         10.16773165	          0.00000000	          0.00000000	          0.00000000	          0.00000000	
          0.54000000	         63.81603142	        530.01177647	        -23.87797341	         -0.71113874	          0.00000000	          0.14999749	          0.00000000	          0.00000000	          0.00000000	          0.00000000	          0.00000000	          0.00000000	          0.00000000	         10.42195962	          0.00000000	          0.00000000	          0.00000000	          0.00000000	
          0.54400000	         67.16039050	        545.69490503	        -24.36399322	         -0.70967055	          0.00000000	          0.14979502	          0.00000000	          0.00000000	          0.00000000	          0.00000000	          0.00000000	          0.00000000	          0.00000000	         10.54814873	          0.00000000	          0.00000000	          0.00000000	          0.00000000	
          0.54800000	         69.99757567	        561.34840632	        -25.70239118	         -0.70794013	          0.00000000	          0.14972332	          0.00000000	          0.00000000	          0.00000000	          0.00000000	          0.00000000	          0.00000000	          0.00000000	         10.53006347	          0.00000000	          0.00000000	          0.00000000	          0.00000000	
          0.55200000	         72.34000137	        576.81385797	        -27.92833994	         -0.70598845	          0.00000000	          0.14974514	          0.00000000	          0.00000000	          0.00000000	          0.00000000	          0.00000000	          0.00000000	          0.00000000	         10.35842726	          0.00000000	          0.00000000	          0.00000000	          0.00000000	
          0.55600000	         74.27770980	        591.98433704	        -30.93460962	         -0.70386742	          0.00000000	          0.14981107	          0.00000000	          0.00000000	          0.00000000	          0.00000000	          0.00000000	          0.00000000	          0.00000000	         10.03665137	          0.00000000	          0.00000000	          0.00000000	          0.00000000	
          0.56000000	         75.95495170	        606.80410791	        -34.44603510	         -0.70161478	          0.00000000	          0.14987592	          0.00000000	          0.00000000	          0.00000000	          0.00000000	          0.00000000	          0.00000000	          0.00000000	          9.58534470	          0.00000000	          0.00000000	          0.00000000	          0.00000000	
          0.56400000	         77.52910546	        621.28167633	        -38.03812041	         -0.69927033	          0.00000000	          0.14988818	          0.00000000	          0.00000000	          0.00000000	          0.00000000	          0.00000000	          0.00000000	          0.00000000	          9.04399404	          0.00000000	          0.00000000	          0.00000000	          0.00000000	
          0.56800000	         79.14509564	        635.49730657	        -41.21098875	         -0.69690443	          0.00000000	          0.14978114	          0.00000000	          0.00000000	          0.00000000	          0.00000000	          0.00000000	          0.00000000	          0.00000000	          8.46853162	          0.00000000	          0.00000000	          0.00000000	          0.00000000	
